<svg width="15" height="14" viewBox="0 0 15 14" fill="none" xmlns="http://www.w3.org/2000/svg">
<path d="M13.5938 0.000488281H9.84375C9.06738 0.000488281 8.4375 0.630371 8.4375 1.40674V5.15674C8.4375 5.93311 9.06738 6.56299 9.84375 6.56299H12.1875V8.43799C12.1875 9.47217 11.3467 10.313 10.3125 10.313H10.0781C9.68848 10.313 9.375 10.6265 9.375 11.0161V12.4224C9.375 12.812 9.68848 13.1255 10.0781 13.1255H10.3125C12.9023 13.1255 15 11.0278 15 8.43799V1.40674C15 0.630371 14.3701 0.000488281 13.5938 0.000488281ZM5.15625 0.000488281H1.40625C0.629883 0.000488281 0 0.630371 0 1.40674V5.15674C0 5.93311 0.629883 6.56299 1.40625 6.56299H3.75V8.43799C3.75 9.47217 2.90918 10.313 1.875 10.313H1.64062C1.25098 10.313 0.9375 10.6265 0.9375 11.0161V12.4224C0.9375 12.812 1.25098 13.1255 1.64062 13.1255H1.875C4.46484 13.1255 6.5625 11.0278 6.5625 8.43799V1.40674C6.5625 0.630371 5.93262 0.000488281 5.15625 0.000488281Z" fill="#432C1F"/>
</svg>
