<svg width="15" height="14" viewBox="0 0 15 14" fill="none" xmlns="http://www.w3.org/2000/svg">
<path d="M13.5938 6.56299H11.25V4.68799C11.25 3.65381 12.0908 2.81299 13.125 2.81299H13.3594C13.749 2.81299 14.0625 2.49951 14.0625 2.10986V0.703613C14.0625 0.313965 13.749 0.000488281 13.3594 0.000488281H13.125C10.5352 0.000488281 8.4375 2.09814 8.4375 4.68799V11.7192C8.4375 12.4956 9.06738 13.1255 9.84375 13.1255H13.5938C14.3701 13.1255 15 12.4956 15 11.7192V7.96924C15 7.19287 14.3701 6.56299 13.5938 6.56299ZM5.15625 6.56299H2.8125V4.68799C2.8125 3.65381 3.65332 2.81299 4.6875 2.81299H4.92188C5.31152 2.81299 5.625 2.49951 5.625 2.10986V0.703613C5.625 0.313965 5.31152 0.000488281 4.92188 0.000488281H4.6875C2.09766 0.000488281 0 2.09814 0 4.68799V11.7192C0 12.4956 0.629883 13.1255 1.40625 13.1255H5.15625C5.93262 13.1255 6.5625 12.4956 6.5625 11.7192V7.96924C6.5625 7.19287 5.93262 6.56299 5.15625 6.56299Z" fill="#432C1F"/>
</svg>
